<svg id="e3tNxiAW4P71" xmlns="http://www.w3.org/2000/svg" xmlns:xlink="http://www.w3.org/1999/xlink" viewBox="0 0 300 300" shape-rendering="geometricPrecision" text-rendering="geometricPrecision"><rect width="30" height="30" rx="0" ry="0" transform="translate(.000001 0)" fill="#065e01" stroke-width="0"/><rect width="30" height="30" rx="0" ry="0" transform="translate(.000001 0)" fill="#065e01" stroke-width="0"/><rect width="30" height="30" rx="0" ry="0" transform="translate(0 90)" fill="#065e01" stroke-width="0"/><rect width="30" height="30" rx="0" ry="0" transform="translate(30 120)" fill="#065e01" stroke-width="0"/><rect width="30" height="30" rx="0" ry="0" transform="translate(270 270)" fill="#065e01" stroke-width="0"/><rect width="30" height="30" rx="0" ry="0" transform="translate(240 270)" fill="#065e01" stroke-width="0"/><rect width="30" height="30" rx="0" ry="0" transform="translate(180 120)" fill="#065e01" stroke-width="0"/><rect width="30" height="30" rx="0" ry="0" transform="translate(90 240)" fill="#065e01" stroke-width="0"/><rect width="30" height="30" rx="0" ry="0" transform="translate(210 240)" fill="#065e01" stroke-width="0"/><rect width="30" height="30" rx="0" ry="0" transform="translate(90 150)" fill="#065e01" stroke-width="0"/><rect width="30" height="30" rx="0" ry="0" transform="translate(240 180)" fill="#065e01" stroke-width="0"/><rect width="30" height="30" rx="0" ry="0" transform="translate(210 180)" fill="#065e01" stroke-width="0"/><rect width="30" height="30" rx="0" ry="0" transform="translate(150 270)" fill="#065e01" stroke-width="0"/><rect width="30" height="30" rx="0" ry="0" transform="translate(240 210)" fill="#065e01" stroke-width="0"/><rect width="30" height="30" rx="0" ry="0" transform="translate(60.000001 0)" fill="#065e01" stroke-width="0"/><rect width="30" height="30" rx="0" ry="0" transform="translate(60.000001 30)" fill="#065e01" stroke-width="0"/><rect width="30" height="30" rx="0" ry="0" transform="translate(30.000001 60)" fill="#065e01" stroke-width="0"/><rect width="30" height="30" rx="0" ry="0" transform="translate(180 30)" fill="#065e01" stroke-width="0"/><rect width="30" height="30" rx="0" ry="0" transform="translate(150 60)" fill="#065e01" stroke-width="0"/><rect width="30" height="30" rx="0" ry="0" transform="translate(120 60)" fill="#065e01" stroke-width="0"/><rect width="30" height="30" rx="0" ry="0" transform="translate(240 0)" fill="#065e01" stroke-width="0"/><rect width="30" height="30" rx="0" ry="0" transform="translate(270 0)" fill="#065e01" stroke-width="0"/><rect width="30" height="30" rx="0" ry="0" transform="translate(270 30)" fill="#065e01" stroke-width="0"/><rect width="30" height="30" rx="0" ry="0" transform="translate(240 30)" fill="#065e01" stroke-width="0"/><rect width="30" height="30" rx="0" ry="0" transform="translate(270 60)" fill="#065e01" stroke-width="0"/><rect width="30" height="30" rx="0" ry="0" transform="translate(150 0)" fill="#065e01" stroke-width="0"/><rect width="30" height="30" rx="0" ry="0" transform="translate(30.000001 0)" fill="#007605" stroke-width="0"/><rect width="30" height="30" rx="0" ry="0" transform="translate(30.000001 30)" fill="#007605" stroke-width="0"/><rect width="30" height="30" rx="0" ry="0" transform="translate(60.000001 60)" fill="#007605" stroke-width="0"/><rect width="30" height="30" rx="0" ry="0" transform="translate(0 30)" fill="#007605" stroke-width="0"/><rect width="30" height="30" rx="0" ry="0" transform="translate(180 0)" fill="#007605" stroke-width="0"/><rect width="30" height="30" rx="0" ry="0" transform="translate(210 0)" fill="#007605" stroke-width="0"/><rect width="30" height="30" rx="0" ry="0" transform="translate(210 30)" fill="#007605" stroke-width="0"/><rect width="30" height="30" rx="0" ry="0" transform="translate(240 60)" fill="#007605" stroke-width="0"/><rect width="30" height="30" rx="0" ry="0" transform="translate(90.000001 0)" fill="#066c01" stroke-width="0"/><rect width="30" height="30" rx="0" ry="0" transform="translate(120 0)" fill="#59932c" stroke-width="0"/><rect width="30" height="30" rx="0" ry="0" transform="translate(120 30)" fill="#59932c" stroke-width="0"/><rect width="30" height="30" rx="0" ry="0" transform="translate(150 30)" fill="#59932c" stroke-width="0"/><rect width="30" height="30" rx="0" ry="0" transform="translate(90 30)" fill="#59932c" stroke-width="0"/><rect width="30" height="30" rx="0" ry="0" transform="translate(90 60)" fill="#59932c" stroke-width="0"/><rect width="30" height="30" rx="0" ry="0" transform="translate(210 60)" fill="#007605" stroke-width="0"/><rect width="30" height="30" rx="0" ry="0" transform="translate(180 60)" fill="#007605" stroke-width="0"/><rect width="30" height="30" rx="0" ry="0" transform="translate(0 60)" fill="#007605" stroke-width="0"/><rect width="30" height="30" rx="0" ry="0" transform="translate(60.000001 0)" fill="#065e01" stroke-width="0"/><rect width="30" height="30" rx="0" ry="0" transform="translate(60.000001 30)" fill="#065e01" stroke-width="0"/><rect width="30" height="30" rx="0" ry="0" transform="translate(30.000001 60)" fill="#065e01" stroke-width="0"/><rect width="30" height="30" rx="0" ry="0" transform="translate(180 30)" fill="#065e01" stroke-width="0"/><rect width="30" height="30" rx="0" ry="0" transform="translate(150 60)" fill="#065e01" stroke-width="0"/><rect width="30" height="30" rx="0" ry="0" transform="translate(120 60)" fill="#065e01" stroke-width="0"/><rect width="30" height="30" rx="0" ry="0" transform="translate(120 120)" fill="#065e01" stroke-width="0"/><rect width="30" height="30" rx="0" ry="0" transform="translate(120 90)" fill="#065e01" stroke-width="0"/><rect width="30" height="30" rx="0" ry="0" transform="translate(60.000001 240)" fill="#065e01" stroke-width="0"/><rect width="30" height="30" rx="0" ry="0" transform="translate(30 210.00003)" fill="#065e01" stroke-width="0"/><rect width="30" height="30" rx="0" ry="0" transform="translate(30 240)" fill="#065e01" stroke-width="0"/><rect width="30" height="30" rx="0" ry="0" transform="translate(.000001 270)" fill="#065e01" stroke-width="0"/><rect width="30" height="30" rx="0" ry="0" transform="translate(30 270)" fill="#065e01" stroke-width="0"/><rect width="30" height="30" rx="0" ry="0" transform="translate(240 0)" fill="#065e01" stroke-width="0"/><rect width="30" height="30" rx="0" ry="0" transform="translate(270 0)" fill="#065e01" stroke-width="0"/><rect width="30" height="30" rx="0" ry="0" transform="translate(270 30)" fill="#065e01" stroke-width="0"/><rect width="30" height="30" rx="0" ry="0" transform="translate(240 30)" fill="#065e01" stroke-width="0"/><rect width="30" height="30" rx="0" ry="0" transform="translate(270 60)" fill="#065e01" stroke-width="0"/><rect width="30" height="30" rx="0" ry="0" transform="translate(150 0)" fill="#065e01" stroke-width="0"/><rect width="30" height="30" rx="0" ry="0" transform="translate(30.000001 0)" fill="#007605" stroke-width="0"/><rect width="30" height="30" rx="0" ry="0" transform="translate(30.000001 30)" fill="#007605" stroke-width="0"/><rect width="30" height="30" rx="0" ry="0" transform="translate(60.000001 60)" fill="#007605" stroke-width="0"/><rect width="30" height="30" rx="0" ry="0" transform="translate(30.000001 90)" fill="#007605" stroke-width="0"/><rect width="30" height="30" rx="0" ry="0" transform="translate(60.000001 120)" fill="#007605" stroke-width="0"/><rect width="30" height="30" rx="0" ry="0" transform="translate(90 120)" fill="#007605" stroke-width="0"/><rect width="30" height="30" rx="0" ry="0" transform="translate(0 30)" fill="#007605" stroke-width="0"/><rect width="30" height="30" rx="0" ry="0" transform="translate(180 0)" fill="#007605" stroke-width="0"/><rect width="30" height="30" rx="0" ry="0" transform="translate(210 0)" fill="#007605" stroke-width="0"/><rect width="30" height="30" rx="0" ry="0" transform="translate(210 30)" fill="#007605" stroke-width="0"/><rect width="30" height="30" rx="0" ry="0" transform="translate(240 60)" fill="#007605" stroke-width="0"/><rect width="30" height="30" rx="0" ry="0" transform="translate(90.000001 0)" fill="#066c01" stroke-width="0"/><rect width="30" height="30" rx="0" ry="0" transform="translate(120 0)" fill="#59932c" stroke-width="0"/><rect width="30" height="30" rx="0" ry="0" transform="translate(120 30)" fill="#59932c" stroke-width="0"/><rect width="30" height="30" rx="0" ry="0" transform="translate(150 30)" fill="#59932c" stroke-width="0"/><rect width="30" height="30" rx="0" ry="0" transform="translate(90 30)" fill="#59932c" stroke-width="0"/><rect width="30" height="30" rx="0" ry="0" transform="translate(90 60)" fill="#59932c" stroke-width="0"/><rect width="30" height="30" rx="0" ry="0" transform="translate(60 90)" fill="#59932c" stroke-width="0"/><rect width="30" height="30" rx="0" ry="0" transform="translate(0 150)" fill="#59932c" stroke-width="0"/><rect width="30" height="30" rx="0" ry="0" transform="translate(270 180)" fill="#59932c" stroke-width="0"/><rect width="30" height="30" rx="0" ry="0" transform="translate(150 210)" fill="#59932c" stroke-width="0"/><rect width="30" height="30" rx="0" ry="0" transform="translate(120 270)" fill="#59932c" stroke-width="0"/><rect width="30" height="30" rx="0" ry="0" transform="translate(150 240)" fill="#59932c" stroke-width="0"/><rect width="30" height="30" rx="0" ry="0" transform="translate(150 180)" fill="#59932c" stroke-width="0"/><rect width="30" height="30" rx="0" ry="0" transform="translate(180 210)" fill="#59932c" stroke-width="0"/><rect width="30" height="30" rx="0" ry="0" transform="translate(240 240)" fill="#59932c" stroke-width="0"/><rect width="30" height="30" rx="0" ry="0" transform="translate(120 150)" fill="#59932c" stroke-width="0"/><rect width="30" height="30" rx="0" ry="0" transform="translate(60.000001 150)" fill="#59932c" stroke-width="0"/><rect width="30" height="30" rx="0" ry="0" transform="translate(90.000001 180.00003)" fill="#59932c" stroke-width="0"/><rect width="30" height="30" rx="0" ry="0" transform="translate(180 150)" fill="#59932c" stroke-width="0"/><rect width="30" height="30" rx="0" ry="0" transform="translate(30 180)" fill="#59932c" stroke-width="0"/><rect width="30" height="30" rx="0" ry="0" transform="translate(240 120)" fill="#59932c" stroke-width="0"/><rect width="30" height="30" rx="0" ry="0" transform="translate(210 120)" fill="#59932c" stroke-width="0"/><rect width="30" height="30" rx="0" ry="0" transform="translate(90 210)" fill="#59932c" stroke-width="0"/><rect width="30" height="30" rx="0" ry="0" transform="translate(0 240)" fill="#59932c" stroke-width="0"/><rect width="30" height="30" rx="0" ry="0" transform="translate(180 270)" fill="#59932c" stroke-width="0"/><rect width="30" height="30" rx="0" ry="0" transform="translate(210 150)" fill="#59932c" stroke-width="0"/><rect width="30" height="30" rx="0" ry="0" transform="translate(60 210)" fill="#59932c" stroke-width="0"/><rect width="30" height="30" rx="0" ry="0" transform="matrix(1 0 0 1.000001 120 210)" fill="#59932c" stroke-width="0"/><rect width="30" height="30" rx="0" ry="0" transform="translate(270 90)" fill="#59932c" stroke-width="0"/><rect width="30" height="30" rx="0" ry="0" transform="translate(240 90)" fill="#59932c" stroke-width="0"/><rect width="30" height="30" rx="0" ry="0" transform="translate(210 60)" fill="#007605" stroke-width="0"/><rect width="30" height="30" rx="0" ry="0" transform="translate(180 60)" fill="#007605" stroke-width="0"/><rect width="30" height="30" rx="0" ry="0" transform="translate(150 90)" fill="#007605" stroke-width="0"/><rect width="30" height="30" rx="0" ry="0" transform="translate(270 240)" fill="#007605" stroke-width="0"/><rect width="30" height="30" rx="0" ry="0" transform="translate(270 210)" fill="#007605" stroke-width="0"/><rect width="30" height="30" rx="0" ry="0" transform="translate(270 210)" fill="#007605" stroke-width="0"/><rect width="30" height="30" rx="0" ry="0" transform="translate(150 150.00003)" fill="#007605" stroke-width="0"/><rect width="30" height="30" rx="0" ry="0" transform="translate(180 180)" fill="#007605" stroke-width="0"/><rect width="30" height="30" rx="0" ry="0" transform="translate(120 180)" fill="#007605" stroke-width="0"/><rect width="30" height="30" rx="0" ry="0" transform="translate(60.000001 180)" fill="#007605" stroke-width="0"/><rect width="30" height="30" rx="0" ry="0" transform="translate(90 90)" fill="#007605" stroke-width="0"/><rect width="30" height="30" rx="0" ry="0" transform="translate(180 90)" fill="#007605" stroke-width="0"/><rect width="30" height="30" rx="0" ry="0" transform="translate(0 60)" fill="#007605" stroke-width="0"/><rect width="30" height="30" rx="0" ry="0" transform="translate(30 150)" fill="#007605" stroke-width="0"/><rect width="30" height="30" rx="0" ry="0" transform="translate(0 180)" fill="#007605" stroke-width="0"/><rect width="30" height="30" rx="0" ry="0" transform="translate(150 120)" fill="#007605" stroke-width="0"/><rect width="30" height="30" rx="0" ry="0" transform="translate(120 240.00003)" fill="#007605" stroke-width="0"/><rect width="30" height="30" rx="0" ry="0" transform="translate(270 120)" fill="#007605" stroke-width="0"/><rect width="30" height="30" rx="0" ry="0" transform="translate(240 150)" fill="#007605" stroke-width="0"/><rect width="30" height="30" rx="0" ry="0" transform="translate(270 150)" fill="#007605" stroke-width="0"/><rect width="30" height="30" rx="0" ry="0" transform="translate(210 90)" fill="#007605" stroke-width="0"/><rect width="30" height="30" rx="0" ry="0" transform="translate(0 210.00003)" fill="#007605" stroke-width="0"/><rect width="30" height="30" rx="0" ry="0" transform="translate(60.000001 270)" fill="#007605" stroke-width="0"/><rect width="30" height="30" rx="0" ry="0" transform="translate(90 270)" fill="#007605" stroke-width="0"/><rect width="30" height="30" rx="0" ry="0" transform="translate(210 210)" fill="#007605" stroke-width="0"/><rect width="30" height="30" rx="0" ry="0" transform="translate(180 240)" fill="#007605" stroke-width="0"/><rect width="30" height="30" rx="0" ry="0" transform="translate(210 270)" fill="#007605" stroke-width="0"/><rect width="30" height="30" rx="0" ry="0" transform="translate(0 120)" fill="#007605" stroke-width="0"/></svg>
