<svg id="ewzMfsc8IGY1" xmlns="http://www.w3.org/2000/svg" viewBox="0 0 300 300" shape-rendering="geometricPrecision" text-rendering="geometricPrecision"><rect width="30" height="30" rx="0" ry="0" fill="#dad5cb" stroke-width="0"/><rect width="30" height="30" rx="0" ry="0" transform="matrix(8 0 0 7.98983 30 30.305)" fill="#fff" stroke-width="0"/><rect width="30" height="30" rx="0" ry="0" transform="translate(270 30)" fill="#dad5cb" stroke-width="0"/><rect width="30" height="30" rx="0" ry="0" transform="translate(270 30)" fill="#dad5cb" stroke-width="0"/><rect width="30" height="30" rx="0" ry="0" transform="translate(270 60)" fill="#dad5cb" stroke-width="0"/><rect width="30" height="30" rx="0" ry="0" transform="translate(270 90)" fill="#dad5cb" stroke-width="0"/><rect width="30" height="30" rx="0" ry="0" transform="translate(270 120)" fill="#dad5cb" stroke-width="0"/><rect width="30" height="30" rx="0" ry="0" transform="translate(270 150)" fill="#dad5cb" stroke-width="0"/><rect width="30" height="30" rx="0" ry="0" transform="translate(270 180)" fill="#dad5cb" stroke-width="0"/><rect width="30" height="30" rx="0" ry="0" transform="translate(270 210)" fill="#dad5cb" stroke-width="0"/><rect width="30" height="30" rx="0" ry="0" transform="translate(270 240)" fill="#dad5cb" stroke-width="0"/><rect width="30" height="30" rx="0" ry="0" transform="translate(270 60)" fill="#dad5cb" stroke-width="0"/><rect width="30" height="30" rx="0" ry="0" transform="translate(270 90)" fill="#dad5cb" stroke-width="0"/><rect width="30" height="30" rx="0" ry="0" transform="translate(270 120)" fill="#dad5cb" stroke-width="0"/><rect width="30" height="30" rx="0" ry="0" transform="translate(270 150)" fill="#dad5cb" stroke-width="0"/><rect width="30" height="30" rx="0" ry="0" transform="translate(270 180)" fill="#dad5cb" stroke-width="0"/><rect width="30" height="30" rx="0" ry="0" transform="translate(270 210)" fill="#dad5cb" stroke-width="0"/><rect width="30" height="30" rx="0" ry="0" transform="translate(270 240)" fill="#dad5cb" stroke-width="0"/><rect width="30" height="30" rx="0" ry="0" transform="translate(0 30)" fill="#dad5cb" stroke-width="0"/><rect width="30" height="30" rx="0" ry="0" transform="translate(0 60)" fill="#dad5cb" stroke-width="0"/><rect width="30" height="30" rx="0" ry="0" transform="translate(0 90)" fill="#dad5cb" stroke-width="0"/><rect width="30" height="30" rx="0" ry="0" transform="translate(0 120)" fill="#dad5cb" stroke-width="0"/><rect width="30" height="30" rx="0" ry="0" transform="translate(0 150)" fill="#dad5cb" stroke-width="0"/><rect width="30" height="30" rx="0" ry="0" transform="translate(0 180)" fill="#dad5cb" stroke-width="0"/><rect width="30" height="30" rx="0" ry="0" transform="translate(0 210)" fill="#dad5cb" stroke-width="0"/><rect width="30" height="30" rx="0" ry="0" transform="translate(0 240)" fill="#dad5cb" stroke-width="0"/><rect width="30" height="30" rx="0" ry="0" transform="translate(0 270)" fill="#dad5cb" stroke-width="0"/><rect width="30" height="30" rx="0" ry="0" transform="translate(30)" fill="#dad5cb" stroke-width="0"/><rect width="30" height="30" rx="0" ry="0" transform="translate(60)" fill="#dad5cb" stroke-width="0"/><rect width="30" height="30" rx="0" ry="0" transform="translate(90)" fill="#dad5cb" stroke-width="0"/><rect width="30" height="30" rx="0" ry="0" transform="translate(120)" fill="#dad5cb" stroke-width="0"/><rect width="30" height="30" rx="0" ry="0" transform="translate(150)" fill="#dad5cb" stroke-width="0"/><rect width="30" height="30" rx="0" ry="0" transform="translate(180)" fill="#dad5cb" stroke-width="0"/><rect width="30" height="30" rx="0" ry="0" transform="translate(210)" fill="#dad5cb" stroke-width="0"/><rect width="30" height="30" rx="0" ry="0" transform="translate(240)" fill="#dad5cb" stroke-width="0"/><rect width="30" height="30" rx="0" ry="0" transform="translate(270)" fill="#dad5cb" stroke-width="0"/><rect width="30" height="30" rx="0" ry="0" transform="translate(120 270)" fill="#dad5cb" stroke-width="0"/><rect width="30" height="30" rx="0" ry="0" transform="translate(30 270)" fill="#dad5cb" stroke-width="0"/><rect width="30" height="30" rx="0" ry="0" transform="translate(60 270)" fill="#dad5cb" stroke-width="0"/><rect width="30" height="30" rx="0" ry="0" transform="translate(90 270)" fill="#dad5cb" stroke-width="0"/><rect width="30" height="30" rx="0" ry="0" transform="translate(150 270)" fill="#dad5cb" stroke-width="0"/><rect width="30" height="30" rx="0" ry="0" transform="translate(180 270)" fill="#dad5cb" stroke-width="0"/><rect width="30" height="30" rx="0" ry="0" transform="translate(240 270)" fill="#dad5cb" stroke-width="0"/><rect width="30" height="30" rx="0" ry="0" transform="translate(270 270)" fill="#dad5cb" stroke-width="0"/><rect width="30" height="30" rx="0" ry="0" transform="translate(210 270)" fill="#dad5cb" stroke-width="0"/></svg>