<svg id="e7wAZxdlBv91" xmlns="http://www.w3.org/2000/svg" xmlns:xlink="http://www.w3.org/1999/xlink" viewBox="0 0 300 300" shape-rendering="geometricPrecision" text-rendering="geometricPrecision"><rect width="30" height="30" rx="0" ry="0" transform="translate(0 270)" fill="#5d5d5d" stroke-width="0"></rect><rect width="30" height="30" rx="0" ry="0" transform="translate(30 270)" fill="#5d5d5d" stroke-width="0"></rect><rect width="30" height="30" rx="0" ry="0" transform="translate(60 270)" fill="#5d5d5d" stroke-width="0"></rect><rect width="30" height="30" rx="0" ry="0" transform="translate(90 270)" fill="#5d5d5d" stroke-width="0"></rect><rect width="30" height="30" rx="0" ry="0" transform="translate(120 270)" fill="#5d5d5d" stroke-width="0"></rect><rect width="30" height="30" rx="0" ry="0" transform="translate(120 240)" fill="#5d5d5d" stroke-width="0"></rect><rect width="30" height="30" rx="0" ry="0" transform="translate(120 210)" fill="#5d5d5d" stroke-width="0"></rect><rect width="30" height="30" rx="0" ry="0" transform="translate(120 180)" fill="#5d5d5d" stroke-width="0"></rect><rect width="30" height="30" rx="0" ry="0" transform="translate(120 180)" fill="#5d5d5d" stroke-width="0"></rect><rect width="30" height="30" rx="0" ry="0" transform="translate(120 150)" fill="#5d5d5d" stroke-width="0"></rect><rect width="30" height="30" rx="0" ry="0" transform="translate(120 120)" fill="#5d5d5d" stroke-width="0"></rect><rect width="30" height="30" rx="0" ry="0" transform="translate(90 120)" fill="#5d5d5d" stroke-width="0"></rect><rect width="30" height="30" rx="0" ry="0" transform="translate(60 120)" fill="#5d5d5d" stroke-width="0"></rect><rect width="30" height="30" rx="0" ry="0" transform="translate(30 120)" fill="#5d5d5d" stroke-width="0"></rect><rect width="30" height="30" rx="0" ry="0" transform="translate(0 120)" fill="#5d5d5d" stroke-width="0"></rect><rect width="30" height="30" rx="0" ry="0" transform="translate(90 120)" fill="#5d5d5d" stroke-width="0"></rect><rect width="30" height="30" rx="0" ry="0" transform="translate(150 120)" fill="#5d5d5d" stroke-width="0"></rect><rect width="30" height="30" rx="0" ry="0" transform="translate(180 120)" fill="#5d5d5d" stroke-width="0"></rect><rect width="30" height="30" rx="0" ry="0" transform="translate(210 120)" fill="#5d5d5d" stroke-width="0"></rect><rect width="30" height="30" rx="0" ry="0" transform="translate(240 120)" fill="#5d5d5d" stroke-width="0"></rect><rect width="30" height="30" rx="0" ry="0" transform="translate(270 120)" fill="#5d5d5d" stroke-width="0"></rect><rect width="30" height="30" rx="0" ry="0" transform="translate(270 90)" fill="#5d5d5d" stroke-width="0"></rect><rect width="30" height="30" rx="0" ry="0" transform="translate(270 60)" fill="#5d5d5d" stroke-width="0"></rect><rect width="30" height="30" rx="0" ry="0" transform="translate(270 30)" fill="#5d5d5d" stroke-width="0"></rect><rect width="30" height="30" rx="0" ry="0" transform="translate(270 0)" fill="#5d5d5d" stroke-width="0"></rect><rect width="30" height="30" rx="0" ry="0" fill="#949494" stroke-width="0"></rect><rect width="30" height="30" rx="0" ry="0" transform="translate(30 0)" fill="#949494" stroke-width="0"></rect><rect width="30" height="30" rx="0" ry="0" transform="translate(60 0)" fill="#949494" stroke-width="0"></rect><rect width="30" height="30" rx="0" ry="0" transform="translate(90 0)" fill="#949494" stroke-width="0"></rect><rect width="30" height="30" rx="0" ry="0" transform="translate(120 0)" fill="#949494" stroke-width="0"></rect><rect width="30" height="30" rx="0" ry="0" transform="translate(150 0)" fill="#949494" stroke-width="0"></rect><rect width="30" height="30" rx="0" ry="0" transform="translate(180 0)" fill="#949494" stroke-width="0"></rect><rect width="30" height="30" rx="0" ry="0" transform="translate(210 0)" fill="#949494" stroke-width="0"></rect><rect width="30" height="30" rx="0" ry="0" transform="translate(240 0)" fill="#949494" stroke-width="0"></rect><rect width="30" height="30" rx="0" ry="0" transform="translate(0 30)" fill="#949494" stroke-width="0"></rect><rect width="30" height="30" rx="0" ry="0" transform="translate(0 60)" fill="#949494" stroke-width="0"></rect><rect width="30" height="30" rx="0" ry="0" transform="translate(0 90)" fill="#949494" stroke-width="0"></rect><rect width="30" height="30" rx="0" ry="0" transform="translate(0 150)" fill="#949494" stroke-width="0"></rect><rect width="30" height="30" rx="0" ry="0" transform="translate(30 150)" fill="#949494" stroke-width="0"></rect><rect width="30" height="30" rx="0" ry="0" transform="translate(90 150)" fill="#949494" stroke-width="0"></rect><rect width="30" height="30" rx="0" ry="0" transform="translate(90 180)" fill="#797979" stroke-width="0"></rect><rect width="30" height="30" rx="0" ry="0" transform="translate(60 180)" fill="#797979" stroke-width="0"></rect><rect width="30" height="30" rx="0" ry="0" transform="translate(30 180)" fill="#797979" stroke-width="0"></rect><rect width="30" height="30" rx="0" ry="0" transform="translate(0 180)" fill="#797979" stroke-width="0"></rect><rect width="30" height="30" rx="0" ry="0" transform="translate(0 210)" fill="#797979" stroke-width="0"></rect><rect width="30" height="30" rx="0" ry="0" transform="translate(0 240)" fill="#797979" stroke-width="0"></rect><rect width="30" height="30" rx="0" ry="0" transform="translate(30 240)" fill="#797979" stroke-width="0"></rect><rect width="30" height="30" rx="0" ry="0" transform="translate(30 210)" fill="#797979" stroke-width="0"></rect><rect width="30" height="30" rx="0" ry="0" transform="translate(60 210)" fill="#797979" stroke-width="0"></rect><rect width="30" height="30" rx="0" ry="0" transform="translate(90 210)" fill="#797979" stroke-width="0"></rect><rect width="30" height="30" rx="0" ry="0" transform="translate(90 240)" fill="#797979" stroke-width="0"></rect><rect width="30" height="30" rx="0" ry="0" transform="translate(60 240)" fill="#797979" stroke-width="0"></rect><rect width="30" height="30" rx="0" ry="0" transform="translate(180 150)" fill="#949494" stroke-width="0"></rect><rect width="30" height="30" rx="0" ry="0" transform="translate(240 150)" fill="#949494" stroke-width="0"></rect><rect width="30" height="30" rx="0" ry="0" transform="translate(270 150)" fill="#949494" stroke-width="0"></rect><rect width="30" height="30" rx="0" ry="0" transform="translate(210 150)" fill="#949494" stroke-width="0"></rect><rect width="30" height="30" rx="0" ry="0" transform="translate(60 150)" fill="#949494" stroke-width="0"></rect><rect width="30" height="30" rx="0" ry="0" transform="translate(150 150)" fill="#949494" stroke-width="0"></rect><rect width="30" height="30" rx="0" ry="0" transform="translate(150 180)" fill="#949494" stroke-width="0"></rect><rect width="30" height="30" rx="0" ry="0" transform="translate(150 240)" fill="#949494" stroke-width="0"></rect><rect width="30" height="30" rx="0" ry="0" transform="translate(150 210)" fill="#949494" stroke-width="0"></rect><rect width="30" height="30" rx="0" ry="0" transform="translate(150 180)" fill="#949494" stroke-width="0"></rect><rect width="30" height="30" rx="0" ry="0" transform="translate(30 150)" fill="#949494" stroke-width="0"></rect><rect width="30" height="30" rx="0" ry="0" transform="translate(150 270)" fill="#5d5d5d" stroke-width="0"></rect><rect width="30" height="30" rx="0" ry="0" transform="translate(180 270)" fill="#5d5d5d" stroke-width="0"></rect><rect width="30" height="30" rx="0" ry="0" transform="translate(210 270)" fill="#5d5d5d" stroke-width="0"></rect><rect width="30" height="30" rx="0" ry="0" transform="translate(240 270)" fill="#5d5d5d" stroke-width="0"></rect><rect width="30" height="30" rx="0" ry="0" transform="translate(270 270)" fill="#5d5d5d" stroke-width="0"></rect><rect width="30" height="30" rx="0" ry="0" transform="translate(270 180)" fill="#797979" stroke-width="0"></rect><rect width="30" height="30" rx="0" ry="0" transform="translate(240 180)" fill="#797979" stroke-width="0"></rect><rect width="30" height="30" rx="0" ry="0" transform="translate(210 180)" fill="#797979" stroke-width="0"></rect><rect width="30" height="30" rx="0" ry="0" transform="translate(180 30)" fill="#797979" stroke-width="0"></rect><rect width="30" height="30" rx="0" ry="0" transform="translate(60 30)" fill="#797979" stroke-width="0"></rect><rect width="30" height="30" rx="0" ry="0" transform="translate(150 30)" fill="#797979" stroke-width="0"></rect><rect width="30" height="30" rx="0" ry="0" transform="translate(150 60)" fill="#797979" stroke-width="0"></rect><rect width="30" height="30" rx="0" ry="0" transform="translate(210 60)" fill="#797979" stroke-width="0"></rect><rect width="30" height="30" rx="0" ry="0" transform="translate(180 60)" fill="#797979" stroke-width="0"></rect><rect width="30" height="30" rx="0" ry="0" transform="translate(180 90)" fill="#797979" stroke-width="0"></rect><rect width="30" height="30" rx="0" ry="0" transform="translate(150 90)" fill="#797979" stroke-width="0"></rect><rect width="30" height="30" rx="0" ry="0" transform="translate(210 90)" fill="#797979" stroke-width="0"></rect><rect width="30" height="30" rx="0" ry="0" transform="translate(240 90)" fill="#797979" stroke-width="0"></rect><rect width="30" height="30" rx="0" ry="0" transform="translate(240 60)" fill="#797979" stroke-width="0"></rect><rect width="30" height="30" rx="0" ry="0" transform="translate(240 30)" fill="#797979" stroke-width="0"></rect><rect width="30" height="30" rx="0" ry="0" transform="translate(210 30)" fill="#797979" stroke-width="0"></rect><rect width="30" height="30" rx="0" ry="0" transform="translate(30 30)" fill="#797979" stroke-width="0"></rect><rect width="30" height="30" rx="0" ry="0" transform="translate(30 60)" fill="#797979" stroke-width="0"></rect><rect width="30" height="30" rx="0" ry="0" transform="translate(210 60)" fill="#797979" stroke-width="0"></rect><rect width="30" height="30" rx="0" ry="0" transform="translate(60 60)" fill="#797979" stroke-width="0"></rect><rect width="30" height="30" rx="0" ry="0" transform="translate(30 90)" fill="#797979" stroke-width="0"></rect><rect width="30" height="30" rx="0" ry="0" transform="translate(90 60)" fill="#797979" stroke-width="0"></rect><rect width="30" height="30" rx="0" ry="0" transform="translate(90 90)" fill="#797979" stroke-width="0"></rect><rect width="30" height="30" rx="0" ry="0" transform="translate(120 90)" fill="#797979" stroke-width="0"></rect><rect width="30" height="30" rx="0" ry="0" transform="translate(120 60)" fill="#797979" stroke-width="0"></rect><rect width="30" height="30" rx="0" ry="0" transform="translate(120 30)" fill="#797979" stroke-width="0"></rect><rect width="30" height="30" rx="0" ry="0" transform="translate(90 30)" fill="#797979" stroke-width="0"></rect><rect width="30" height="30" rx="0" ry="0" transform="translate(180 180)" fill="#797979" stroke-width="0"></rect><rect width="30" height="30" rx="0" ry="0" transform="translate(180 210)" fill="#797979" stroke-width="0"></rect><rect width="30" height="30" rx="0" ry="0" transform="translate(180 240)" fill="#797979" stroke-width="0"></rect><rect width="30" height="30" rx="0" ry="0" transform="translate(210 240)" fill="#797979" stroke-width="0"></rect><rect width="30" height="30" rx="0" ry="0" transform="translate(210 210)" fill="#797979" stroke-width="0"></rect><rect width="30" height="30" rx="0" ry="0" transform="translate(60 90)" fill="#797979" stroke-width="0"></rect><rect width="30" height="30" rx="0" ry="0" transform="translate(240 210)" fill="#797979" stroke-width="0"></rect><rect width="30" height="30" rx="0" ry="0" transform="translate(270 210)" fill="#797979" stroke-width="0"></rect><rect width="30" height="30" rx="0" ry="0" transform="translate(270 240)" fill="#797979" stroke-width="0"></rect><rect width="30" height="30" rx="0" ry="0" transform="translate(240 240)" fill="#797979" stroke-width="0"></rect></svg>
